<?xml version="1.0" standalone="no"?>
<!DOCTYPE svg PUBLIC "-//W3C//DTD SVG 20010904//EN"
 "http://www.w3.org/TR/2001/REC-SVG-20010904/DTD/svg10.dtd">
<svg version="1.0" xmlns="http://www.w3.org/2000/svg"
 width="589.000000pt" height="589.000000pt" viewBox="0 0 589.000000 589.000000"
 preserveAspectRatio="xMidYMid meet">
<metadata>
Created by potrace 1.14, written by Peter Selinger 2001-2017
</metadata>
<g transform="translate(0.000000,589.000000) scale(0.100000,-0.100000)"
fill="#000000" stroke="none">
<path d="M4070 5857 c-33 -42 -71 -99 -110 -167 -30 -51 -31 -53 -25 -20 15
80 18 170 6 170 -18 0 -55 -104 -75 -210 -6 -33 -24 -80 -31 -80 -3 0 -3 28
-1 63 6 75 -7 106 -22 56 -10 -31 -15 -54 -26 -114 -2 -11 -7 -42 -10 -70 -5
-38 -15 -59 -41 -85 -28 -30 -98 -141 -191 -307 -33 -57 -288 -479 -361 -594
-53 -85 -65 -97 -127 -133 l-68 -39 -28 30 c-92 98 -219 169 -352 196 l-57 12
29 58 c17 31 30 59 30 62 0 3 -18 14 -39 25 -30 15 -41 17 -49 7 -9 -12 -42
-99 -46 -124 -3 -19 -8 -21 -66 -28 -267 -30 -480 -192 -571 -434 -36 -98 -54
-243 -38 -321 4 -19 10 -51 13 -71 l6 -37 -82 33 c-69 28 -111 55 -258 173
-281 225 -412 323 -457 344 -29 13 -56 37 -84 76 -25 34 -38 47 -34 32 6 -18
-1 -13 -27 20 -21 27 -41 44 -51 42 -9 -2 -17 1 -17 5 0 5 -10 14 -22 22 -14
9 -9 -1 15 -30 20 -23 37 -46 37 -51 0 -12 -36 9 -72 40 -16 15 -35 27 -41 28
-7 0 -17 2 -23 2 -7 1 -31 38 -53 82 -23 44 -44 80 -46 80 -2 0 -1 -10 2 -22
2 -13 -14 9 -37 47 -29 50 -40 61 -35 40 6 -29 4 -28 -39 20 l-46 50 41 -63
c58 -88 39 -102 -31 -25 l-53 58 42 -62 c23 -35 40 -63 37 -63 -2 0 -17 13
-33 28 -49 49 -163 142 -173 142 -6 0 -10 -4 -10 -8 0 -8 103 -136 137 -170 7
-7 13 -16 13 -18 0 -6 -12 1 -67 38 -45 30 -93 52 -93 41 0 -10 70 -70 142
-121 78 -55 99 -85 29 -42 -27 17 -54 30 -61 30 -23 0 8 -27 107 -92 59 -39
100 -73 110 -93 9 -16 48 -66 87 -110 39 -44 85 -95 101 -114 17 -18 35 -39
40 -45 6 -6 53 -60 105 -121 52 -60 101 -116 108 -124 40 -42 334 -392 331
-395 -2 -1 -15 -10 -28 -19 -21 -14 -24 -24 -23 -69 1 -61 11 -219 17 -263 2
-16 7 -55 10 -85 7 -63 73 -399 82 -413 26 -42 44 -250 29 -332 -3 -16 -10
-59 -16 -95 -17 -110 -17 -111 -75 -340 -37 -147 -47 -206 -49 -287 -2 -65 1
-108 8 -117 6 -8 222 -139 481 -291 259 -153 474 -281 479 -286 11 -10 -11
-19 -129 -55 -49 -15 -94 -30 -100 -34 -5 -4 -22 -10 -38 -14 -15 -4 -115 -40
-222 -81 -106 -41 -222 -79 -257 -84 -35 -6 -81 -13 -103 -17 -79 -12 -109
-20 -112 -31 -6 -18 36 -22 182 -18 130 3 147 6 235 38 191 70 326 116 355
122 29 6 41 8 128 20 96 14 302 66 537 135 57 17 56 12 -14 -40 -95 -72 -141
-121 -125 -131 7 -4 16 -6 19 -5 3 2 28 6 57 10 28 3 63 10 78 16 41 16 22 -3
-47 -45 -35 -21 -112 -71 -173 -110 -278 -181 -321 -206 -390 -226 -38 -11
-86 -27 -105 -36 -34 -15 -34 -16 -12 -24 13 -5 29 -6 35 -2 7 3 -1 -9 -18
-27 l-30 -33 37 6 c44 7 192 70 425 182 95 46 198 91 230 100 32 9 132 48 223
87 91 38 172 72 180 75 8 4 -5 -14 -30 -39 -119 -120 -118 -144 2 -97 33 13
47 15 38 6 -8 -7 -51 -45 -95 -83 -44 -38 -85 -73 -91 -79 -53 -47 -146 -127
-192 -164 -93 -77 -125 -108 -121 -120 6 -18 97 34 310 175 333 221 565 394
690 514 15 14 61 56 102 93 42 37 89 80 105 95 80 73 108 99 119 105 6 4 39
-12 75 -37 255 -177 591 -227 890 -132 479 152 777 634 698 1132 -76 479 -482
839 -970 860 -36 1 -68 3 -72 3 -10 1 12 61 23 61 11 0 29 67 29 110 l-1 35
-19 -24 c-11 -13 -20 -31 -20 -39 0 -9 -15 -47 -32 -83 -31 -64 -35 -67 -72
-71 l-38 -4 6 56 c4 30 25 152 48 270 l41 215 1 305 1 304 -77 46 c-70 41 -76
47 -71 70 9 36 6 56 -14 97 -33 68 -98 97 -173 79 -39 -10 -47 -9 -65 9 -11
11 -30 27 -43 35 -23 15 -23 16 -7 60 9 25 24 75 33 112 l18 67 24 -47 c83
-160 158 -202 309 -173 27 6 55 5 70 -1 l26 -9 -21 23 c-11 13 -31 34 -43 48
-12 14 -36 47 -54 75 -18 27 -43 60 -57 72 -34 30 -119 62 -181 67 -28 2 -52
6 -54 8 -1 1 4 41 13 87 16 80 16 84 -3 97 -26 20 -62 17 -84 -5 -15 -15 -17
-26 -11 -60 4 -23 6 -54 4 -69 -1 -15 -5 -52 -8 -82 -3 -30 -13 -90 -22 -132
l-17 -77 -19 38 c-24 50 -85 84 -139 79 -21 -2 -39 -1 -39 2 0 4 7 29 15 56
65 220 113 424 110 465 -3 38 2 51 34 94 54 73 57 80 26 59 -25 -16 -24 -13
13 36 42 56 48 77 12 45 l-21 -19 20 48 c29 67 26 69 -11 8 -49 -78 -79 -61
-43 25 19 44 19 52 1 28 -12 -16 -13 -14 -11 20 2 33 12 47 81 112 77 73 78
74 34 52 -44 -21 -43 -20 33 51 80 75 97 104 31 54 l-36 -28 36 57 c20 31 35
57 33 57 -2 0 -27 -22 -54 -50 -52 -52 -73 -62 -73 -33 0 17 43 96 68 126 8 9
12 17 9 17 -4 0 -34 -34 -67 -76 -33 -41 -60 -73 -60 -70 0 3 18 50 40 104 40
99 60 182 44 182 -5 0 -20 -15 -34 -33z m-2611 -2164 c2 -2 2 -5 -1 -8 -2 -3
-20 12 -39 33 l-34 37 35 -30 c19 -17 37 -31 39 -32z m2237 -2360 c-5 -5 -101
-31 -141 -38 -16 -3 -46 -10 -65 -15 -51 -12 -186 -24 -177 -14 4 4 80 49 170
100 l162 92 28 -61 c15 -33 25 -62 23 -64z m-599 -225 c19 0 31 -4 27 -8 -12
-11 -286 -112 -291 -107 -6 7 212 125 220 120 5 -3 24 -5 44 -5z"/>
</g>
</svg>
